# xmcd
#
# Track frame offsets: 
#        150
#        17045
#        34219
#        45937
#        62255
#        77339
#        95210
#        109687
#        130924
#        143654
#        158813
#
# Disc length: 2312 seconds
#
# Revision: 0
# Processed by: cddbd v1.5.2PL0 Copyright (c) Steve Scherf et al.
# Submitted via: ExactAudioCopy v1.3
#
DISCID=8009060b
DTITLE=Sha La Das - Love in the wind
DYEAR=2018
DGENRE=Funk
TTITLE0=Open my eyes
TTITLE1=Just for a minute
TTITLE2=Summer breeze
TTITLE3=Okay my love
TTITLE4=Sha la da la la (Christmas time)
TTITLE5=Those years are over
TTITLE6=Do what
TTITLE7=Carnival
TTITLE8=You never know whether
TTITLE9=It's you
TTITLE10=Love in the wind
EXTD=
EXTT0=
EXTT1=
EXTT2=
EXTT3=
EXTT4=
EXTT5=
EXTT6=
EXTT7=
EXTT8=
EXTT9=
EXTT10=
PLAYORDER=
